<svg id="canvas" height="auto" xmlns="http://www.w3.org/2000/svg" version="1.1" xmlns:xlink="http://www.w3.org/1999/xlink" viewBox="0 0 1200 900" width="auto" style="width: auto; height: auto;"><rect width="1200" height="900" fill="#ffffffff"/><path d="M0 -136.34270686191473C40.5 -136.34270686191473 229.5 -28.34270686191475 270 -28.34270686191475S499.5 -136.34270686191473 540 -136.34270686191473S769.5 -28.34270686191475 810 -28.34270686191475S1039.5 -136.34270686191473 1080 -136.34270686191473S1309.5 -28.34270686191475 1350 -28.34270686191475S1579.5 -136.34270686191473 1620 -136.34270686191473S1849.5 -28.34270686191475 1890 -28.34270686191475L1200 900L0 900Z " fill="#402e01"/><path d="M0 -23.842706861914735C40.5 -23.842706861914735 229.5 84.15729313808525 270 84.15729313808525S499.5 -23.842706861914735 540 -23.842706861914735S769.5 84.15729313808525 810 84.15729313808525S1039.5 -23.842706861914735 1080 -23.842706861914735S1309.5 84.15729313808525 1350 84.15729313808525S1579.5 -23.842706861914735 1620 -23.842706861914735S1849.5 84.15729313808525 1890 84.15729313808525L1200 900L0 900Z " fill="#604501"/><path d="M0 88.65729313808527C40.5 88.65729313808527 229.5 196.65729313808527 270 196.65729313808527S499.5 88.65729313808528 540 88.65729313808528S769.5 196.65729313808527 810 196.65729313808527S1039.5 88.65729313808528 1080 88.65729313808528S1309.5 196.65729313808527 1350 196.65729313808527S1579.5 88.65729313808528 1620 88.65729313808528S1849.5 196.65729313808527 1890 196.65729313808527L1200 900L0 900Z " fill="#dfa003"/><path d="M0 201.15729313808527C40.5 201.15729313808527 229.5 309.15729313808527 270 309.15729313808527S499.5 201.15729313808527 540 201.15729313808527S769.5 309.15729313808527 810 309.15729313808527S1039.5 201.15729313808527 1080 201.15729313808527S1309.5 309.15729313808527 1350 309.15729313808527S1579.5 201.15729313808527 1620 201.15729313808527S1849.5 309.15729313808527 1890 309.15729313808527L1200 900L0 900Z " fill="#bf8902"/><path d="M0 313.65729313808527C40.5 313.65729313808527 229.5 421.65729313808527 270 421.65729313808527S499.5 313.65729313808527 540 313.65729313808527S769.5 421.65729313808527 810 421.65729313808527S1039.5 313.65729313808527 1080 313.65729313808527S1309.5 421.65729313808527 1350 421.65729313808527S1579.5 313.65729313808527 1620 313.65729313808527S1849.5 421.65729313808527 1890 421.65729313808527L1200 900L0 900Z " fill="#805c02"/><path d="M0 426.15729313808527C40.5 426.15729313808527 229.5 534.1572931380853 270 534.1572931380853S499.5 426.15729313808527 540 426.15729313808527S769.5 534.1572931380853 810 534.1572931380853S1039.5 426.15729313808527 1080 426.15729313808527S1309.5 534.1572931380853 1350 534.1572931380853S1579.5 426.15729313808527 1620 426.15729313808527S1849.5 534.1572931380853 1890 534.1572931380853L1200 900L0 900Z " fill="#9f7202"/><path d="M0 538.6572931380853C40.5 538.6572931380853 229.5 646.6572931380853 270 646.6572931380853S499.5 538.6572931380853 540 538.6572931380853S769.5 646.6572931380853 810 646.6572931380853S1039.5 538.6572931380853 1080 538.6572931380853S1309.5 646.6572931380853 1350 646.6572931380853S1579.5 538.6572931380853 1620 538.6572931380853S1849.5 646.6572931380853 1890 646.6572931380853L1200 900L0 900Z " fill="#ffb703"/><path d="M0 651.1572931380853C40.5 651.1572931380853 229.5 759.1572931380853 270 759.1572931380853S499.5 651.1572931380853 540 651.1572931380853S769.5 759.1572931380853 810 759.1572931380853S1039.5 651.1572931380853 1080 651.1572931380853S1309.5 759.1572931380853 1350 759.1572931380853S1579.5 651.1572931380853 1620 651.1572931380853S1849.5 759.1572931380853 1890 759.1572931380853L1200 900L0 900Z " fill="#402e01"/><path d="M0 763.6572931380853C40.5 763.6572931380853 229.5 871.6572931380853 270 871.6572931380853S499.5 763.6572931380853 540 763.6572931380853S769.5 871.6572931380853 810 871.6572931380853S1039.5 763.6572931380853 1080 763.6572931380853S1309.5 871.6572931380853 1350 871.6572931380853S1579.5 763.6572931380853 1620 763.6572931380853S1849.5 871.6572931380853 1890 871.6572931380853L1200 900L0 900Z " fill="#604501"/><path d="M0 876.1572931380853C40.5 876.1572931380853 229.5 984.1572931380853 270 984.1572931380853S499.5 876.1572931380853 540 876.1572931380853S769.5 984.1572931380853 810 984.1572931380853S1039.5 876.1572931380853 1080 876.1572931380853S1309.5 984.1572931380853 1350 984.1572931380853S1579.5 876.1572931380853 1620 876.1572931380853S1849.5 984.1572931380853 1890 984.1572931380853L1200 900L0 900Z " fill="#dfa003"/><path d="M0 988.6572931380853C40.5 988.6572931380853 229.5 1096.6572931380852 270 1096.6572931380852S499.5 988.6572931380852 540 988.6572931380852S769.5 1096.6572931380852 810 1096.6572931380852S1039.5 988.6572931380852 1080 988.6572931380852S1309.5 1096.6572931380852 1350 1096.6572931380852S1579.5 988.6572931380852 1620 988.6572931380852S1849.5 1096.6572931380852 1890 1096.6572931380852L1200 900L0 900Z " fill="#bf8902"/><path d="M0 1101.1572931380852C40.5 1101.1572931380852 229.5 1209.1572931380852 270 1209.1572931380852S499.5 1101.1572931380852 540 1101.1572931380852S769.5 1209.1572931380852 810 1209.1572931380852S1039.5 1101.1572931380852 1080 1101.1572931380852S1309.5 1209.1572931380852 1350 1209.1572931380852S1579.5 1101.1572931380852 1620 1101.1572931380852S1849.5 1209.1572931380852 1890 1209.1572931380852L1200 900L0 900Z " fill="#805c02"/></svg>